HIERARCHY
ROOT SimulationBone
{
	OFFSET 0.000000 0.000000 0.000000
	CHANNELS 6 Xposition Yposition Zposition Zrotation Yrotation Xrotation 
	JOINT Hips
	{
		OFFSET 0.000000 0.000000 0.000000
		CHANNELS 6 Xposition Yposition Zposition Zrotation Yrotation Xrotation 
		JOINT RightUpLeg
		{
			OFFSET 0.103454 1.857828 10.548502
			CHANNELS 3 Zrotation Yrotation Xrotation
			JOINT RightLeg
			{
				OFFSET 43.500000 -0.000023 -0.000008
				CHANNELS 3 Zrotation Yrotation Xrotation
				JOINT RightFoot
				{
					OFFSET 42.372192 0.000008 0.000008
					CHANNELS 3 Zrotation Yrotation Xrotation
					JOINT RightToe
					{
						OFFSET 17.299997 -0.000001 0.000000
						CHANNELS 3 Zrotation Yrotation Xrotation
						End Site
						{
							OFFSET 0.000000 0.000000 0.000000
						}
					}
				}
			}
		}
		JOINT LeftUpLeg
		{
			OFFSET 0.103459 1.857828 -10.548505
			CHANNELS 3 Zrotation Yrotation Xrotation
			JOINT LeftLeg
			{
				OFFSET 43.500046 -0.000027 0.000015
				CHANNELS 3 Zrotation Yrotation Xrotation
				JOINT LeftFoot
				{
					OFFSET 42.372261 -0.000008 0.000019
					CHANNELS 3 Zrotation Yrotation Xrotation
					JOINT LeftToe
					{
						OFFSET 17.299992 -0.000006 -0.000002
						CHANNELS 3 Zrotation Yrotation Xrotation
						End Site
						{
							OFFSET 0.000000 0.000000 0.000000
						}
					}
				}
			}
		}
		JOINT Spine
		{
			OFFSET 6.901967 -2.603729 0.000006
			CHANNELS 3 Zrotation Yrotation Xrotation
			JOINT Spine1
			{
				OFFSET 12.588098 -0.000001 -0.000005
				CHANNELS 3 Zrotation Yrotation Xrotation
				JOINT Spine2
				{
					OFFSET 12.343207 0.000001 -0.000003
					CHANNELS 3 Zrotation Yrotation Xrotation
					JOINT Neck
					{
						OFFSET 25.832897 -0.000006 -0.000001
						CHANNELS 3 Zrotation Yrotation Xrotation
						JOINT Head
						{
							OFFSET 11.766602 0.000010 0.000005
							CHANNELS 3 Zrotation Yrotation Xrotation
							End Site
							{
								OFFSET 0.000000 0.000000 0.000000
							}
						}
					}
					JOINT RightShoulder
					{
						OFFSET 19.745901 -1.480368 6.000114
						CHANNELS 3 Zrotation Yrotation Xrotation
						JOINT RightArm
						{
							OFFSET 11.284125 -0.000009 -0.000026
							CHANNELS 3 Zrotation Yrotation Xrotation
							JOINT RightForeArm
							{
								OFFSET 33.000046 0.000005 0.000037
								CHANNELS 3 Zrotation Yrotation Xrotation
								JOINT RightHand
								{
									OFFSET 25.200003 0.000016 -0.000001
									CHANNELS 3 Zrotation Yrotation Xrotation
									End Site
									{
										OFFSET 0.000000 0.000000 0.000000
									}
								}
							}
						}
					}
					JOINT LeftShoulder
					{
						OFFSET 19.746088 -1.480377 -6.000074
						CHANNELS 3 Zrotation Yrotation Xrotation
						JOINT LeftArm
						{
							OFFSET 11.284132 -0.000015 -0.000021
							CHANNELS 3 Zrotation Yrotation Xrotation
							JOINT LeftForeArm
							{
								OFFSET 33.000107 0.000015 0.000018
								CHANNELS 3 Zrotation Yrotation Xrotation
								JOINT LeftHand
								{
									OFFSET 25.199774 0.000138 0.000420
									CHANNELS 3 Zrotation Yrotation Xrotation
									End Site
									{
										OFFSET 0.000000 0.000000 0.000000
									}
								}
							}
						}
					}
				}
			}
		}
	}
}
MOTION
Frames: 15
Frame Time: 0.033333
-232.438736 0.000000 -129.250516 180.000000 30.133740 180.000000 -5.672549 85.826981 -4.587683 78.534350 -12.275988 -179.856844 178.924018 1.550596 166.833340 -58.519463 5.026836 -1.639827 65.738228 -7.389883 -21.682599 21.454558 0.003109 0.000017 135.434646 -3.354512 -162.058983 -29.312566 -1.047943 -1.139978 67.434191 -4.668867 -14.581491 21.454551 -0.003091 0.000001 7.610728 -1.846884 -2.532437 5.291666 -3.576726 -5.148696 4.974297 -3.607847 -5.127072 19.718621 1.614925 3.722650 -22.793699 7.496958 0.909638 144.524494 -80.044476 34.474256 -12.446967 51.161542 29.407711 -103.021000 -1.876652 3.060242 -11.265470 -1.357425 23.458230 -99.899378 85.053791 82.237998 58.073438 -43.314375 -70.099953 -107.207913 -1.750812 -2.945965 -4.416594 5.421779 -17.737711 
-238.561675 0.000000 -132.940549 180.000000 32.104036 180.000000 -6.159479 82.969177 -5.050314 80.370125 -12.127206 179.832822 177.247411 -0.440708 168.654788 -71.776047 4.405809 -2.453809 70.510269 -5.758326 -21.511435 21.454560 0.003109 0.000015 136.976138 -4.448808 -161.587809 -40.067884 -1.290030 1.643844 83.675637 -6.671520 -25.426245 21.454551 -0.003092 -0.000002 7.797227 -1.551916 -1.833412 5.632835 -3.013193 -3.741103 5.314995 -3.035854 -3.722862 20.564545 -2.478384 2.134695 -22.313791 9.725014 -1.849687 149.312129 -79.454040 29.669461 -11.689278 51.451907 28.946502 -99.899815 -2.023886 2.931432 -9.967398 0.113961 23.968691 -102.571253 84.706462 79.581129 56.162897 -47.239248 -70.216018 -106.958010 -1.665437 -2.940968 -4.247144 5.594578 -16.648239 
-244.469338 0.000000 -136.919779 180.000000 34.071259 180.000000 -6.909334 80.681297 -5.121444 81.601330 -10.210242 179.452969 172.042165 -4.065401 171.485614 -86.001343 4.293264 -3.036751 73.810193 -3.492528 -17.671419 21.454548 0.003109 0.000019 137.585364 -7.053609 -162.800318 -50.275913 -1.636193 4.424097 92.585564 -6.430521 -25.690966 21.454553 -0.003093 0.000000 8.089125 -0.812211 -1.200634 6.182598 -1.559327 -2.442980 5.864696 -1.574187 -2.433523 19.907426 -6.173962 0.819399 -21.266661 11.348837 -3.995249 159.487881 -77.935395 19.432440 -9.679752 52.763365 26.492603 -93.394852 -2.566966 2.678146 -10.072828 -1.400882 24.937272 -123.913210 84.055778 58.176150 44.530269 -53.774960 -61.966406 -102.114204 -0.740505 -2.792086 -5.461502 5.926454 -20.831070 
-250.163805 0.000000 -141.175269 180.000000 36.035960 180.000000 -7.824458 79.162247 -5.300810 82.257481 -9.031031 179.187730 164.000287 -5.956600 175.636498 -98.043008 4.219620 -3.979213 78.123649 -1.429875 -15.053300 21.454557 0.003109 0.000012 139.947789 -8.245691 -163.753580 -56.878684 -0.971315 4.937513 98.911255 -5.193470 -24.574264 21.454551 -0.003089 -0.000001 8.413102 -0.295930 -0.773912 6.817158 -0.545844 -1.563850 6.499167 -0.555417 -1.560523 18.411011 -8.461056 -0.137197 -19.939397 12.130898 -5.388373 167.890612 -76.080255 10.955701 -5.534876 54.748392 23.449653 -86.222286 -3.509714 2.424420 -10.740939 -5.195485 24.539087 -148.932111 83.509820 32.971714 24.002162 -59.384117 -45.386296 -94.726644 1.243267 -2.602205 -7.212620 5.193846 -30.644890 
-255.647155 0.000000 -145.694082 180.000000 37.998552 180.000000 -8.593101 78.982452 -5.478887 82.425563 -9.216514 178.649939 153.886730 -4.713500 178.879444 -105.406082 4.194626 -6.794600 81.139485 2.232266 -9.766975 21.454563 0.003110 0.000016 144.696028 -7.765705 -163.488555 -58.932498 -0.973137 3.524705 103.152502 -3.310708 -24.294986 21.454551 -0.003094 0.000000 8.602828 -0.284238 -0.202900 7.193970 -0.555299 -0.423048 6.875847 -0.557970 -0.419690 17.275198 -9.072795 -1.341570 -18.889170 12.991925 -7.000914 173.360733 -75.466562 5.388085 1.165968 56.094677 23.648606 -83.384691 -4.482930 2.367367 -10.813228 -7.608875 22.542580 -167.760538 84.142548 13.948757 5.439529 -62.311850 -29.031152 -90.634035 2.872632 -2.534213 -8.939829 4.036652 -39.101259 
-260.921467 0.000000 -150.463282 180.000000 39.959296 180.000000 -9.096475 79.760399 -5.499438 82.120839 -9.572094 177.875268 143.860313 -2.886201 179.950418 -106.470594 4.362509 -11.179988 82.079906 6.256527 -6.060005 21.454558 0.003109 0.000012 150.803760 -7.612300 -163.482613 -57.298197 -1.719899 1.903155 104.839995 -1.881071 -24.279104 21.454553 -0.003096 0.000001 8.567102 -0.522474 0.792156 7.114300 -1.092465 1.550823 6.796257 -1.083218 1.557389 16.792285 -8.509564 -3.181920 -18.001892 14.770988 -9.505538 179.108816 -76.262785 -0.508601 9.484149 54.682187 27.818785 -86.486102 -3.242734 2.417444 -10.767062 -7.045699 19.735326 -178.486298 86.167023 3.155057 -2.026261 -64.492320 -20.315621 -93.076586 2.023661 -2.583333 -9.953647 4.877871 -38.170113 
-265.988820 0.000000 -155.469931 180.000000 41.918301 180.000000 -9.008819 81.324921 -5.243806 81.777730 -9.978765 177.136123 136.135547 -1.718001 179.563843 -101.434497 4.489773 -13.807133 83.056152 8.437549 -4.928016 21.454560 0.003109 0.000012 158.364971 -7.731796 -165.462835 -52.434013 -1.797037 0.619431 103.277801 -1.383524 -23.899600 21.454550 -0.003092 -0.000001 8.410793 -0.886682 1.960051 6.777825 -1.886214 3.865433 6.460321 -1.862980 3.876730 16.727046 -7.607031 -5.239599 -16.680691 17.294380 -12.338279 -173.783385 -77.287538 -7.783593 15.970773 50.425910 34.281655 -92.592981 -2.409060 2.631224 -11.062522 -5.678001 16.425247 173.296994 88.649544 -5.038353 0.285132 -66.141728 -20.279265 -99.811385 -0.516727 -2.705561 -9.890454 8.058285 -28.505935 
-270.851293 0.000000 -160.701092 180.000000 43.875520 180.000000 -8.192082 83.768188 -4.671451 81.748426 -10.549817 177.374369 132.248691 -0.586702 179.242237 -90.584052 4.165852 -13.107422 82.505837 7.871679 -5.527639 21.454568 0.003114 0.000020 166.851358 -7.002002 -168.129833 -45.381635 -0.808912 -0.748867 95.327980 -2.098387 -22.804163 21.454548 -0.003092 0.000000 8.260805 -1.276081 2.746759 6.446638 -2.702560 5.419826 6.129689 -2.669965 5.435987 17.081752 -6.801534 -6.851704 -14.759332 19.788489 -14.478432 -167.851298 -77.740359 -13.838735 21.130940 45.986284 39.071219 -97.923896 -1.865333 2.832005 -11.130705 -4.343421 14.206560 90.093105 89.512614 -88.229098 5.742173 -65.581639 -24.916725 -106.343511 -2.511197 -2.855396 -9.228172 10.035180 -19.751712 
-275.510966 0.000000 -166.143830 180.000000 45.830745 180.000000 -6.935095 86.305817 -4.065840 81.754956 -11.373387 178.826468 131.525756 1.485001 178.729262 -75.379832 4.154373 -11.110842 78.384897 5.086071 -10.641173 21.454563 0.003111 0.000018 175.374314 -5.467899 -169.316250 -37.453042 -0.115414 -2.606451 83.732491 -2.284972 -18.340904 21.454553 -0.003091 -0.000000 8.087527 -1.663879 3.014704 6.074692 -3.482930 5.940884 5.757808 -3.447192 5.961722 17.794081 -5.871366 -7.886136 -12.869915 21.545552 -15.666103 -165.629519 -77.812486 -16.104686 27.185558 42.884924 42.142510 -101.001518 -1.510201 2.944774 -10.372592 -2.464157 13.393029 54.186828 88.960140 -124.142226 9.693587 -63.639707 -29.959529 -110.397194 -3.286343 -2.978213 -8.417205 9.058665 -18.108519 
-279.969917 0.000000 -171.785206 180.000000 47.783610 180.000000 -5.660458 88.665779 -3.487708 81.138096 -12.091868 -179.377137 132.577264 3.352003 177.728202 -57.154722 4.010073 -6.034943 71.350929 0.777704 -10.880806 21.454562 0.003108 0.000017 -178.740887 -3.615294 -168.432219 -31.841498 -0.232053 -5.284445 68.918268 0.173676 -9.758712 21.454550 -0.003096 0.000010 7.785577 -2.003843 3.089403 5.451566 -4.150029 6.085358 5.134505 -4.113408 6.110211 18.306825 -4.635022 -8.647494 -11.821686 22.314851 -16.392002 -166.812289 -77.775193 -14.898446 33.536598 41.226837 43.881746 -102.544512 -1.358765 3.002933 -9.150655 -0.181548 13.051014 44.433454 89.026222 -133.877117 11.790168 -61.124142 -34.339155 -112.661812 -3.455812 -3.063796 -7.336572 7.069799 -20.554706 
-284.230227 0.000000 -177.612285 180.000000 49.733593 180.000000 -4.638539 90.068069 -3.171317 80.093354 -11.797145 -178.336083 134.839942 3.681703 177.597554 -38.737438 3.227831 -0.979797 66.569052 -5.873939 -17.456379 21.454560 0.003112 0.000018 -176.191314 -2.599305 -166.604256 -31.491318 -1.539427 -7.090737 59.025129 4.455421 -1.469823 21.454560 -0.003082 -0.000003 7.396285 -2.113546 3.271291 4.660203 -4.355925 6.460038 4.343307 -4.317051 6.486113 17.968416 -3.568466 -9.339320 -11.833550 22.513856 -17.128292 -168.913583 -77.517668 -12.754910 38.471269 40.457724 44.584821 -103.284700 -1.302114 3.031878 -8.150781 1.709876 12.466081 13.645425 89.581756 -164.623487 13.184592 -58.279429 -38.237571 -114.236901 -3.554367 -3.123989 -6.293631 5.882921 -21.912239 
-288.293973 0.000000 -183.612128 180.000000 51.680016 180.000000 -4.038813 90.276176 -3.113341 79.482288 -10.992725 -178.031317 136.889203 3.448503 178.156523 -26.398082 1.951192 0.297050 64.776203 -9.560778 -23.548066 21.454557 0.003109 0.000019 -176.019699 -2.151401 -165.883124 -37.302532 -3.372846 -5.707799 57.422377 6.925981 5.690758 21.454553 -0.003096 0.000004 7.129620 -2.027736 3.443121 4.124830 -4.175511 6.816958 3.808275 -4.134514 6.841923 16.752431 -3.333240 -9.912706 -12.521861 22.838775 -17.987701 -169.238591 -77.014290 -12.422284 40.560259 40.420411 44.281882 -103.377912 -1.278436 3.034370 -7.496048 3.323613 12.102891 -88.657023 89.681019 93.095595 14.585586 -55.733251 -41.710121 -115.315696 -3.585629 -3.167361 -5.738275 5.562699 -20.658769 
-292.163236 0.000000 -189.771800 180.000000 53.622054 180.000000 -3.790481 89.271492 -3.348466 80.152980 -10.282884 -177.739996 138.587789 2.957598 177.200310 -23.975516 1.822183 -0.950552 63.085458 -10.156633 -26.162013 21.454557 0.003102 0.000012 -177.010759 -2.190205 -166.765844 -47.863319 -4.364764 0.129333 59.960769 3.867398 8.734122 21.454550 -0.003091 -0.000002 7.150245 -1.827144 3.351849 4.180535 -3.772848 6.639699 3.864028 -3.732911 6.662231 15.444386 -3.681889 -10.193598 -13.639387 23.339424 -18.749703 -167.302096 -76.763444 -14.400551 39.941147 41.011864 43.297505 -102.960403 -1.299361 3.017282 -6.758696 5.282799 12.370632 -136.959909 89.578955 44.777644 16.161520 -54.075420 -44.784912 -115.779411 -3.506281 -3.192283 -5.536391 5.512012 -17.959187 
-295.840094 0.000000 -196.078363 180.000000 55.558740 180.000000 -3.588943 87.438469 -3.723106 82.201299 -10.167607 -176.825017 140.695695 3.652597 174.193607 -29.518029 2.786934 -1.339915 63.317718 -5.748873 -16.486490 21.454560 0.003116 0.000019 -178.359476 -1.372304 -167.572257 -61.226902 -4.374342 5.290172 65.341107 -0.151125 9.197344 21.454539 -0.003099 -0.000000 7.436098 -1.660599 2.827687 4.777698 -3.435518 5.587362 4.460630 -3.401904 5.607935 14.713102 -3.815569 -10.122709 -15.243664 23.605818 -19.179837 -164.760214 -77.022547 -16.995877 37.099364 41.900895 41.534807 -101.756602 -1.415410 2.971811 -5.982919 6.843334 12.606992 -165.975127 89.478477 15.738371 17.100051 -53.987591 -46.811897 -115.194610 -3.402430 -3.174860 -5.325390 5.216693 -15.891989 
-299.326627 0.000000 -202.518880 180.000000 57.488975 180.000000 -3.353433 84.758858 -4.524911 84.905620 -10.493527 -175.637373 143.669573 4.169404 172.786014 -40.305021 3.385001 -0.466826 78.857437 -1.989609 -8.957709 21.454558 0.003113 0.000018 179.652540 0.900610 -166.583615 -75.717954 -4.217483 7.655093 69.744701 -3.904730 4.208425 21.454555 -0.003090 0.000000 7.848097 -1.600009 2.017591 5.628723 -3.295617 3.956959 5.310879 -3.271816 3.976762 14.315539 -3.537467 -9.878440 -17.261640 23.682622 -19.434974 -164.674713 -77.108171 -17.082696 31.635756 42.274168 37.995267 -98.578078 -1.673666 2.847909 -5.777156 6.098990 12.896758 -157.765677 89.098861 23.954165 17.012727 -55.710458 -47.315429 -112.196007 -3.051699 -3.071747 -5.247577 4.693432 -16.719251 
